<?xml version="1.0" encoding="UTF-8"?>
<svg id="Layer_2" xmlns="http://www.w3.org/2000/svg" viewBox="0 0 241.78 195.63">
  <defs>
    <style>
      .cls-1 {
        font-family: BalooBhaijaan-Regular, 'Baloo Bhaijaan';
        font-size: 76.37px;
      }

      .cls-1, .cls-2 {
        fill: #606363;
      }

      .cls-3, .cls-4 {
        fill: none;
        stroke: #060404;
        stroke-miterlimit: 10;
        stroke-width: 9px;
      }

      .cls-4 {
        stroke-linecap: round;
      }

      .cls-5 {
        fill: #b5b5b6;
      }

      .cls-6 {
        fill: #5f6263;
      }

      .cls-7 {
        letter-spacing: 0em;
      }
    </style>
  </defs>
  <g id="Layer_4">
    <g>
      <path class="cls-6" d="M149.93,174.24v1.02c0,7.17-5.8,12.97-12.97,12.97h-26.16c-7.17,0-12.98-5.8-12.98-12.97v-1.02c0-.62.05-1.23.12-1.82.9-6.31,6.31-11.16,12.86-11.16h26.16c6.41,0,11.73,4.64,12.77,10.75.14.71.2,1.47.2,2.23Z"/>
      <g>
        <path class="cls-5" d="M188.74,98.59c0,32.63-26.5,59.08-59.16,59.08-7.75,0-15.15-1.49-21.94-4.2-.97-.39-1.93-.8-2.88-1.24-6.53-3.01-12.41-7.17-17.38-12.22-.91-.92-1.79-1.86-2.63-2.85-8.95-10.35-14.35-23.84-14.35-38.57,0-32.62,26.49-59.07,59.16-59.07s59.16,26.45,59.16,59.07Z"/>
        <path class="cls-5" d="M104.77,152.23l-15.58,9.69c-2.78,1.73-6.29-.73-5.61-3.94l3.81-17.98c4.97,5.06,10.85,9.21,17.38,12.22Z"/>
      </g>
      <path class="cls-2" d="M51.84,142.49h0c-20.1,0-36.4-16.29-36.4-36.4v-6.46c0-14.88,9.83-27.46,23.36-31.58,1.77-.54,3.44,1.07,3.02,2.88-1.47,6.36-2.24,12.99-2.24,19.79,0,17.73,5.26,34.24,14.3,48.06,1.04,1.59-.13,3.71-2.04,3.71Z"/>
      <path class="cls-3" d="M40.9,144.34h0c-20.1,0-36.4-16.29-36.4-36.4v-6.46c0-14.88,9.83-27.46,23.36-31.58,1.77-.54,3.44,1.07,3.02,2.88-1.47,6.36-2.24,12.99-2.24,19.79,0,17.73,5.26,34.24,14.3,48.06,1.04,1.59-.13,3.71-2.04,3.71Z"/>
      <path class="cls-4" d="M28.63,92.57c0-8.18,1.12-16.1,3.22-23.62C42.2,31.78,76.38,4.5,116.96,4.5s74.85,27.35,85.15,64.6c2.08,7.47,3.18,15.34,3.18,23.47,0,19.51-6.36,37.53-17.13,52.13-11.96,16.21-29.35,28.19-49.5,33.26-.85-4.96-5.17-8.73-10.37-8.73h-21.24c-5.32,0-9.71,3.94-10.44,9.06"/>
      <path class="cls-2" d="M241.78,100.8v7.42c0,19.57-15.86,35.44-35.44,35.44h-2.53c-1.91,0-3.09-2.13-2.03-3.72,9.19-13.89,14.53-30.53,14.53-48.41,0-6.82-.77-13.45-2.25-19.82-.41-1.76,1.18-3.35,2.94-2.9,14.25,3.66,24.78,16.59,24.78,31.99Z"/>
      <path class="cls-3" d="M230.76,101.84v7.42c0,19.57-15.86,35.44-35.44,35.44h-2.53c-1.91,0-3.09-2.13-2.03-3.72,9.19-13.89,14.53-30.53,14.53-48.41,0-6.82-.77-13.45-2.25-19.82-.41-1.76,1.18-3.35,2.94-2.9,14.25,3.66,24.78,16.59,24.78,31.99Z"/>
      <path class="cls-3" d="M138.82,179.77v.83c0,5.82-4.71,10.53-10.53,10.53h-21.24c-5.82,0-10.54-4.71-10.54-10.53v-.83c0-.5.04-1,.1-1.48.73-5.12,5.12-9.06,10.44-9.06h21.24c5.2,0,9.52,3.77,10.37,8.73.11.58.16,1.19.16,1.81Z"/>
      <g>
        <path class="cls-3" d="M178.73,92.95c0,34.14-27.72,61.81-61.89,61.81-8.11,0-15.85-1.56-22.95-4.39-1.02-.41-2.02-.84-3.01-1.3-6.83-3.15-12.98-7.5-18.18-12.79-.95-.96-1.87-1.95-2.75-2.98-9.36-10.83-15.01-24.94-15.01-40.35,0-34.13,27.71-61.8,61.9-61.8s61.89,27.67,61.89,61.8Z"/>
        <path class="cls-3" d="M90.88,149.07l-16.3,10.14c-2.91,1.81-6.58-.76-5.87-4.12l3.99-18.81c5.2,5.29,11.35,9.64,18.18,12.79Z"/>
      </g>
      <text class="cls-1" transform="translate(73.75 116.7)"><tspan class="cls-7" x="0" y="0">2</tspan><tspan x="39.48" y="0">4</tspan></text>
    </g>
  </g>
</svg>