<?xml version="1.0" encoding="UTF-8"?>
<svg id="Layer_2" xmlns="http://www.w3.org/2000/svg" viewBox="0 0 287.48 214.12">
  <defs>
    <style>
      .cls-1 {
        fill: #231f20;
      }

      .cls-2 {
        fill: #b5b5b6;
      }

      .cls-3 {
        fill: #5f6263;
      }
    </style>
  </defs>
  <g id="Layer_4">
    <g>
      <path class="cls-2" d="M273.09,20.09v50.71c-2.03-.36-4.14-.57-6.29-.57H61.65c-2.14,0-4.23.19-6.25.55V20.09c0-11.09,9.95-20.09,22.23-20.09h173.24c12.27,0,22.23,9,22.23,20.09Z"/>
      <path class="cls-2" d="M287.48,109.17v87.01c0,4.66-4.2,8.46-9.36,8.46h-18.17c-5.16,0-9.36-3.79-9.36-8.46v-10.6c0-1.94-1.75-3.52-3.9-3.52H71.18c-2.14,0-3.9,1.59-3.9,3.52v10.6c0,4.66-4.2,8.46-9.36,8.46h-18.54c-5.16,0-9.36-3.79-9.36-8.46v-87.01c0-13.16,10.34-24.13,24.07-26.65,1.94-.35,3.95-.53,6.01-.53h197.31c2.07,0,4.1.19,6.05.55,13.71,2.53,24.02,13.49,24.02,26.63Z"/>
      <path class="cls-1" d="M264.72,214.12h-19.12c-7.41,0-13.45-5.61-13.45-12.5v-11.16s-.19-.11-.5-.11H46.92c-.31,0-.49.15-.52.2l.02,11.06c0,6.89-6.03,12.5-13.45,12.5H13.45c-7.41,0-13.45-5.61-13.45-12.5v-91.58c0-15.29,11.89-28.57,28.28-31.58,2.28-.41,4.62-.62,6.97-.62h207.67c2.32,0,4.67.21,7.01.63,16.37,3.02,28.24,16.3,28.24,31.57v91.58c0,6.89-6.03,12.5-13.45,12.5ZM46.92,183.16h184.73c4.24,0,7.7,3.28,7.7,7.3v11.16c0,2.93,2.81,5.31,6.25,5.31h19.12c3.45,0,6.25-2.38,6.25-5.31v-91.58c0-11.8-9.4-22.1-22.34-24.5-1.9-.34-3.83-.51-5.72-.51H35.25c-1.93,0-3.84.17-5.68.5-12.96,2.38-22.37,12.69-22.37,24.51v91.58c0,2.93,2.81,5.31,6.25,5.31h19.52c3.45,0,6.25-2.38,6.25-5.31v-11.16c0-4.03,3.45-7.3,7.7-7.3Z"/>
      <path class="cls-3" d="M133.46,56.34v25.09H55.78v-25.09c0-8.75,7.84-15.85,17.52-15.85h42.64c9.67,0,17.52,7.1,17.52,15.85Z"/>
      <path class="cls-3" d="M222.29,56.34v25.09h-77.7v-25.09c0-8.75,7.85-15.85,17.54-15.85h42.62c9.68,0,17.54,7.1,17.54,15.85Z"/>
      <path class="cls-1" d="M253.6,87.17l-5.08-.91c-1.87-.34-3.76-.51-5.61-.51H35.25c-1.88,0-3.75.17-5.56.49l-5.08.92V30.68c0-13.59,12.03-24.65,26.81-24.65h175.36c14.79,0,26.81,11.06,26.81,24.65v56.49ZM35.25,77.12h207.67c.68,0,1.37.02,2.06.05V30.68c0-8.83-8.16-16.02-18.18-16.02H51.42c-10.03,0-18.18,7.19-18.18,16.02v46.49c.67-.03,1.34-.05,2.01-.05Z"/>
    </g>
  </g>
</svg>