<?xml version="1.0" encoding="UTF-8"?>
<svg id="Layer_2" xmlns="http://www.w3.org/2000/svg" viewBox="0 0 289.77 213.23">
  <defs>
    <style>
      .cls-1 {
        fill: #5f6162;
      }

      .cls-2 {
        fill: #231f20;
      }

      .cls-3 {
        fill: #b5b5b6;
      }

      .cls-4 {
        fill: #5f6263;
      }
    </style>
  </defs>
  <g id="Layer_4">
    <g>
      <path class="cls-3" d="M262.7,68.29h-48.56c-.21-10.87-13.2-19.64-29.2-19.64s-28.99,8.77-29.2,19.64h-82.9c-3.53,0-5.99-3.57-4.8-6.97l17.25-49.34C87.82,4.75,94.35-.03,101.64,0l133.15.68c7.31.04,13.82,4.9,16.29,12.18l16.44,48.51c1.14,3.39-1.32,6.92-4.82,6.92Z"/>
      <path class="cls-2" d="M242.99,77.62H26.68l21.43-59.24c2.95-8.17,10.66-13.63,19.19-13.63h.1l135.92.67c8.6.04,16.32,5.61,19.21,13.86l20.46,58.35ZM34.52,72.11h200.71l-17.89-51.03c-2.12-6.06-7.77-10.15-14.04-10.18l-135.92-.67h-.07c-6.22,0-11.85,4.01-14.02,10l-18.76,51.87Z"/>
      <g>
        <path class="cls-4" d="M59.67,179.76v14.66c0,10.39-8.24,18.81-18.4,18.81h-13.39c-10.16,0-18.4-8.42-18.4-18.81v-25.02c4.81,6.32,12.33,10.36,20.77,10.36h29.43Z"/>
        <path class="cls-4" d="M260.7,168.58v25.84c0,10.39-8.24,18.81-18.4,18.81h-13.39c-10.16,0-18.4-8.42-18.4-18.81v-14.66h26.17c9.59,0,18.19-4.33,24.03-11.18Z"/>
      </g>
      <path class="cls-3" d="M289.77,112.53v28.24c0,3.15-.58,6.17-1.63,8.99-1.28,3.42-3.27,6.52-5.81,9.19-5.55,5.83-13.73,9.51-22.85,9.51H63.21c-8.02,0-15.17-3.44-19.75-8.82-3.32-3.87-5.29-8.76-5.29-14.06v-34.52c0-16.63,14.75-30.12,32.94-30.12h184.1c19.08,0,34.55,14.14,34.55,31.59Z"/>
      <rect class="cls-1" x="28.99" y="111.2" width="52.55" height="37.89" rx="7.3" ry="7.3"/>
      <rect class="cls-1" x="187.21" y="111.8" width="49.92" height="38.18" rx="7.49" ry="7.49"/>
      <path class="cls-2" d="M235.35,181.12H28.93c-8.99,0-17.31-4.15-22.83-11.39-3.99-5.2-6.1-11.46-6.1-18.11v-40.59c0-20.95,16.71-38,37.24-38h193.62c21.47,0,38.94,17.82,38.94,39.73v33.2c0,3.9-.62,7.73-1.85,11.39-1.43,4.28-3.65,8.2-6.59,11.66-6.56,7.69-16.04,12.1-26.01,12.1ZM37.24,78.23c-17.67,0-32.05,14.72-32.05,32.81v40.59c0,5.49,1.74,10.66,5.03,14.95,4.53,5.94,11.35,9.35,18.71,9.35h206.42c8.45,0,16.49-3.74,22.06-10.27,2.51-2.95,4.4-6.29,5.62-9.94,1.05-3.13,1.58-6.4,1.58-9.74v-33.2c0-19.05-15.14-34.54-33.75-34.54H37.24Z"/>
      <path class="cls-2" d="M213.79,78.22h-57.69l-.74-1.33c-1.47-2.64-2.22-5.44-2.22-8.32,0-.13,0-.27.01-.41.3-12.4,14.24-22.1,31.79-22.1s31.49,9.7,31.79,22.1c0,.14.01.28.01.41,0,2.88-.75,5.68-2.22,8.32l-.74,1.33ZM159.24,73.04h51.4c.61-1.45.91-2.95.91-4.47v-.19s0-.04,0-.04c-.18-9.43-12.12-17.1-26.61-17.1s-26.42,7.67-26.61,17.1v.23c-.01,1.52.3,3.02.9,4.47Z"/>
      <rect class="cls-1" x="103.39" y="132.98" width="64.59" height="8.59" rx="3.95" ry="3.95"/>
      <rect class="cls-1" x="103.41" y="115.19" width="64.59" height="8.59" rx="3.95" ry="3.95"/>
    </g>
  </g>
</svg>