<?xml version="1.0" encoding="UTF-8"?>
<svg id="Layer_2" xmlns="http://www.w3.org/2000/svg" viewBox="0 0 281.44 248.32">
  <defs>
    <style>
      .cls-1 {
        fill: #231f20;
      }

      .cls-2 {
        fill: #b5b5b6;
      }

      .cls-3 {
        fill: #5f6263;
      }
    </style>
  </defs>
  <g id="Layer_4">
    <g>
      <path class="cls-3" d="M87.84,238.46s-26.46,23.44-39.95-19.77c-9.84-31.53,11.67-42.14,24.02-45.56,6.07,13.24,14.45,25.68,24.35,35.73,2.03,22.84-8.41,29.59-8.41,29.59Z"/>
      <path class="cls-3" d="M193.02,209.88c11.43-11.66,19.89-25.33,24.43-35.21.26-.56.69-1.52,1.23-2.83,6.3,3.72,14.71,10.19,22.37,20.99,21.79,30.75-46.5,93.04-48.03,17.05Z"/>
      <path class="cls-3" d="M279.98,141.83c-4.42,7.83-15.57,12.18-23.87,7.58-8.31-4.6-18.68-18.16-22.83-25.05-1.27-2.11-3.16-3.73-5.16-4.96-1.07-8.66-3.68-18.03-9.11-27.22-3.93-6.65-9.5-13.47-16.49-19.63,3.97-2.24,14.52-7.33,26.34-5.89,15.05,1.84,32.43,12.87,40.47,28.5,8.04,15.63,15.31,38.38,10.64,46.66Z"/>
      <path class="cls-3" d="M84.65,76.25c-4.07,3.49-6.6,6.3-7.48,7.3-9.09,10.34-13.63,21.28-15.82,30.96-1.28.53-2.53,1.14-3.63,1.9-4.67,3.22-7,18.39-15.31,28.5-8.3,10.11-18.16,10.11-22.05,10.11s-17.41-7.45-12.97-26.21c11.16-47.12,37.1-55.85,48.51-58.15,7.58-1.52,20.75,2.62,28.75,5.58Z"/>
      <path class="cls-3" d="M173.55,29.99c0,5.05-1.36,9.78-3.73,13.84-.85,1.45-2.71,2.19-4.48,1.73-6.12-1.61-12.68-2.5-19.61-2.44-6.6.06-12.68.97-18.21,2.41-1.76.46-3.63-.29-4.47-1.74-2.36-4.05-3.71-8.77-3.71-13.81,0-15.1,12.13-27.33,27.1-27.33s27.1,12.24,27.1,27.33Z"/>
      <path class="cls-2" d="M209.02,145.35c-1.55,10.57-4.95,18.2-5.8,20.05-6.94,15.11-26.19,42.11-51.63,43.68-33.25,2.07-63.38-40.16-64.97-74.7-.34-7.48-.87-25.34,13.15-41.28,2.27-2.58,19.26-21.26,47.54-21.51,26.64-.23,46.82,16.05,55.72,31.1,9.82,16.61,7.26,34.04,5.99,42.65Z"/>
      <path class="cls-1" d="M163.38,55.09l-1.65-.5c-8.02-2.45-16.37-3.67-24.8-3.58-7.9.07-15.72,1.26-23.25,3.55l-1.66.5-1.03-1.39c-4.32-5.84-6.6-12.78-6.6-20.07C104.4,15.07,119.35,0,137.72,0s33.32,15.07,33.32,33.59c0,7.32-2.29,14.27-6.63,20.11l-1.03,1.39ZM137.64,46.1c8.08,0,16.07,1.11,23.8,3.29,3.08-4.69,4.7-10.11,4.7-15.8,0-15.82-12.75-28.69-28.42-28.69s-28.42,12.87-28.42,28.69c0,5.67,1.61,11.08,4.67,15.76,7.44-2.1,15.14-3.19,22.91-3.25.25,0,.51,0,.76,0Z"/>
      <path class="cls-1" d="M256.34,151.55c-3.13,0-6.14-.72-8.66-2.11-9.16-5.07-19.89-19.6-23.65-25.84-.95-1.58-2.44-3-4.42-4.22l-.91-.56-.13-1.06c-1.18-9.6-4.15-18.47-8.82-26.36-4-6.76-9.55-13.37-16.04-19.09l-2.33-2.05,2.7-1.53c4.17-2.36,15.23-7.68,27.7-6.15,16.9,2.06,34.24,14.27,42.16,29.68,7.31,14.2,16.16,38.9,10.6,48.75h0c-4.04,7.16-11.41,10.54-18.2,10.54ZM222.82,116.2c2.15,1.47,3.83,3.19,4.99,5.12,4.4,7.31,14.44,20.07,22.01,24.26,7.45,4.12,17.16-.15,20.88-6.74,3.96-7.02-2.46-28.6-10.68-44.56-7.18-13.96-23.49-25.45-38.77-27.32-9.09-1.11-17.42,1.89-22.25,4.2,5.83,5.51,10.83,11.68,14.56,18,4.81,8.14,7.92,17.23,9.26,27.04Z"/>
      <path class="cls-1" d="M16.31,151.34c-2.91,0-7.93-2.44-11.51-6.97-3.2-4.05-6.47-11.2-3.85-22.26,8.1-34.23,25.54-54.98,50.41-59.99,7.88-1.58,20.71,2.21,30.09,5.68l3.91,1.45-3.17,2.71c-3.46,2.97-5.84,5.47-7.23,7.06-7.59,8.64-12.73,18.7-15.27,29.89l-.28,1.24-1.18.48c-1.28.52-2.32,1.07-3.18,1.66-1.59,1.09-3.34,5.44-5.03,9.64-2.29,5.69-5.14,12.76-9.77,18.4-9.03,11.01-19.87,11.01-23.94,11.01ZM55.57,66.66c-1.21,0-2.3.09-3.24.28-22.86,4.61-38.97,24.08-46.61,56.31-2.17,9.15.39,14.88,2.92,18.08,3.04,3.85,6.73,5.1,7.66,5.1,3.77,0,12.59,0,20.15-9.22,4.15-5.05,6.73-11.46,9.01-17.12,2.23-5.54,3.99-9.91,6.8-11.85.86-.59,1.82-1.13,2.92-1.64,2.82-11.52,8.22-21.88,16.09-30.83,1.03-1.17,2.56-2.81,4.62-4.75-8.46-2.88-15.46-4.39-20.33-4.39Z"/>
      <path class="cls-1" d="M66.02,247.79c-1.72,0-3.5-.21-5.31-.72-9.15-2.55-16.24-11.67-21.07-27.12-3.83-12.26-3.45-22.73,1.12-31.11,5.69-10.44,16.51-15.3,24.59-17.54l2.01-.56.87,1.9c6.07,13.23,14.32,25.34,23.87,35.03l.62.63.08.88c2.01,22.69-7.84,30.67-9.35,31.75-1.06.91-8.38,6.87-17.43,6.87ZM64.69,176.61c-6.86,2.19-15.18,6.44-19.61,14.57-3.91,7.18-4.16,16.36-.74,27.31,4.29,13.74,10.24,21.76,17.67,23.85,9.3,2.61,18.23-5.11,18.32-5.19l.27-.21c.09-.07,2.33-1.66,4.32-5.67,1.86-3.73,3.87-10.34,3.07-20.8-9.21-9.5-17.23-21.16-23.3-33.86Z"/>
      <path class="cls-1" d="M139.48,235.56c-8.51,0-17.1-2.02-25.6-6.03-8.84-4.17-17.34-10.36-25.27-18.42-9.94-10.09-18.53-22.69-24.83-36.43-6.42-13.99-10.13-28.44-10.75-41.77-.21-4.55-.65-14.02,1.87-25.08,2.73-12,8.23-22.78,16.37-32.04,1.49-1.7,4.04-4.39,7.72-7.54,6.82-5.85,18.12-13.79,33.25-18.39,7.97-2.42,16.26-3.69,24.63-3.76,8.91-.08,17.78,1.2,26.28,3.8,12.21,3.73,23.84,10.27,33.64,18.92,6.86,6.05,12.73,13.04,16.97,20.22,4.99,8.45,8.17,17.92,9.43,28.16h0c1.57,12.68-.08,23.94-1.08,30.67-1.57,10.7-4.52,19.3-6.71,24.63-.56,1.36-1.01,2.35-1.28,2.93-5.67,12.35-14.98,25.77-24.9,35.9-14.52,14.81-30.58,23.15-46.44,24.13-1.1.07-2.21.1-3.32.1ZM137.64,51c-.24,0-.48,0-.72,0-7.9.07-15.72,1.26-23.25,3.55-14.32,4.35-25.02,11.88-31.48,17.42-3.46,2.97-5.84,5.48-7.23,7.06-7.59,8.64-12.73,18.7-15.27,29.89-2.37,10.41-1.96,19.43-1.76,23.77.58,12.71,4.15,26.53,10.3,39.95,6.07,13.23,14.32,25.34,23.87,35.03,15.57,15.81,33.47,23.94,50.39,22.89,18.49-1.15,33.72-12.96,43.24-22.67,9.55-9.74,18.5-22.64,23.95-34.51.25-.55.67-1.47,1.2-2.75,2.09-5.07,4.89-13.26,6.39-23.48.95-6.48,2.55-17.33,1.06-29.35h0c-1.18-9.57-4.13-18.4-8.79-26.27-3.98-6.74-9.52-13.32-16-19.04-9.28-8.19-20.29-14.38-31.83-17.9-7.79-2.38-15.89-3.58-24.08-3.58ZM138.32,211.91c-12.15,0-24.44-5.29-35.72-15.41-17.55-15.75-30.04-41.38-31.07-63.77-.34-7.3-1.23-26.69,14.12-44.16,3.32-3.78,21.38-22.68,50.67-22.93.2,0,.41,0,.61,0,28.91,0,49.71,17.82,58.79,33.17,10.54,17.82,7.79,36.47,6.47,45.44h0c-1.54,10.48-4.82,18.37-6.16,21.27-7.02,15.27-27.57,44.6-55.13,46.31-.86.05-1.72.08-2.58.08ZM136.93,70.54c-.19,0-.37,0-.56,0-27.21.23-43.95,17.76-47.03,21.27-14.05,15.98-13.22,33.94-12.91,40.7.98,21.17,12.81,45.42,29.45,60.34,7.72,6.93,20.01,14.99,34.72,14.08,25.25-1.56,44.39-29.12,50.98-43.47,1.25-2.72,4.32-10.09,5.76-19.93h0c1.24-8.41,3.81-25.9-5.84-42.23-8.42-14.23-27.73-30.76-54.57-30.76Z"/>
      <path class="cls-1" d="M206.94,248.32c-1.74,0-3.46-.25-5.16-.78-7.33-2.31-16.19-10.75-16.74-37.89l-.02-1.03.72-.74c9.55-9.74,18.5-22.64,23.95-34.51.25-.55.67-1.47,1.2-2.75l1.08-2.61,2.44,1.44c6.08,3.58,15.02,10.25,23.13,21.69,9.19,12.96,3.43,29.95-4.29,40.55-6.44,8.85-16.55,16.63-26.3,16.63ZM189.97,210.57c.53,18.31,5.23,29.76,13.29,32.29,7.56,2.38,18.26-3.41,26.02-14.06,6.76-9.29,11.94-23.98,4.25-34.83-6.6-9.32-13.77-15.24-19.25-18.83-.05.1-.09.19-.13.28-5.53,12.05-14.53,25.12-24.18,35.15Z"/>
      <ellipse class="cls-1" cx="125.42" cy="26.66" rx="3.91" ry="3.58"/>
      <ellipse class="cls-1" cx="149.66" cy="26.66" rx="3.91" ry="3.58"/>
      <path class="cls-1" d="M122.23,164.04l-.08-.11-17.57-24.5.09-.14,15.79-25.12h.13s33.63-.18,33.63-.18l16.29,24.88-.08.13-14.85,23.46h-.13s-33.21,1.57-33.21,1.57ZM105.17,139.42l17.3,24.12,32.82-1.54,14.63-23.11-15.97-24.39-33.23.18-15.55,24.75Z"/>
      <polygon class="cls-1" points="120.46 114.67 120.39 114.56 97.73 80.96 98.14 80.69 120.72 114.18 153.96 114 176.62 81.5 177.02 81.78 154.22 114.48 154.09 114.48 120.46 114.67"/>
      <rect class="cls-1" x="170.21" y="138.64" width="29.76" height=".49"/>
      <rect class="cls-1" x="164.57" y="159.48" width=".49" height="34.78" transform="translate(-69.4 116.93) rotate(-32.67)"/>
      <rect class="cls-1" x="95.33" y="177.35" width="34.07" height=".49" transform="translate(-97.38 164.44) rotate(-54.09)"/>
      <polygon class="cls-1" points="75.18 140.18 75.17 139.69 104.88 139.18 104.88 139.67 75.18 140.18"/>
      <path class="cls-1" d="M138.32,210.05c-11.69,0-23.56-5.13-34.48-14.93-17.21-15.44-29.45-40.55-30.46-62.47-.33-7.1-1.2-25.95,13.66-42.85,3.23-3.68,20.79-22.06,49.29-22.3.2,0,.39,0,.59,0,28.12,0,48.37,17.33,57.19,32.26,10.2,17.26,7.52,35.47,6.24,44.22h0c-1.5,10.24-4.7,17.93-6.01,20.77-6.86,14.92-26.88,43.58-53.56,45.24-.82.05-1.64.08-2.47.08ZM136.93,68.69c-.19,0-.39,0-.58,0-28,.24-45.24,18.28-48.41,21.9-14.54,16.54-13.69,35.04-13.37,42.01,1,21.63,13.08,46.4,30.06,61.64,11.45,10.28,23.92,15.3,36.08,14.55,26.12-1.62,45.8-29.85,52.55-44.54,1.28-2.79,4.43-10.35,5.91-20.44h0c1.27-8.62,3.91-26.55-6.08-43.44-8.66-14.66-28.54-31.67-56.16-31.67Z"/>
      <path class="cls-1" d="M138.32,211.42c-12.03,0-24.21-5.25-35.39-15.28-17.46-15.67-29.88-41.16-30.91-63.43-.33-7.25-1.22-26.5,14-43.81,3.3-3.76,21.22-22.52,50.31-22.77,29.05-.27,49.9,17.58,58.97,32.92,10.45,17.67,7.72,36.21,6.41,45.12h0c-1.53,10.41-4.79,18.25-6.12,21.14-6.97,15.18-27.39,44.33-54.72,46.03-.85.05-1.7.08-2.55.08ZM136.93,70.05c-.19,0-.38,0-.57,0-27.41.24-44.29,17.9-47.39,21.43-14.18,16.13-13.34,34.23-13.03,41.04.98,21.29,12.88,45.68,29.61,60.69,11.17,10.02,23.31,14.94,35.08,14.21,25.48-1.58,44.76-29.31,51.4-43.75,1.26-2.73,4.35-10.16,5.8-20.07h0c1.25-8.46,3.84-26.07-5.91-42.55-8.48-14.35-27.94-31-54.99-31Z"/>
    </g>
  </g>
</svg>