<?xml version="1.0" encoding="UTF-8"?>
<svg id="Layer_2" xmlns="http://www.w3.org/2000/svg" viewBox="0 0 279.22 277.18">
  <defs>
    <style>
      .cls-1 {
        fill: #231f20;
      }

      .cls-2 {
        fill: #b5b5b6;
      }

      .cls-3 {
        fill: #5f6263;
      }
    </style>
  </defs>
  <g id="Layer_4">
    <g>
      <path class="cls-3" d="M108.34,34.02v118.63c0,3.48-3,6.29-6.71,6.29h-63.34c-5.98,0-11.36-2.44-15.07-6.31-4.88-5.1-5.12-12.76-.71-18.22L101.68,32c2.09-2.71,6.66-1.32,6.66,2.03Z"/>
      <path class="cls-3" d="M252.56,148.44c0,.05,0,.11,0,.16-.05,7.03-6.13,12.7-13.63,12.7-28.1.32-56.21.63-84.31.95-.72,0-1.31-.54-1.31-1.21v-7.67c0-.19.05-.38.14-.55,6.84-12.35,14.55-30.81,16.13-53.98,2.06-30.08-7.14-54.57-15.61-70.41-.44-.82-.67-1.72-.67-2.63h0c0-4.44,5.09-7.26,9.22-5.09,16.22,8.5,37.32,22.68,55.56,45.49,26.8,33.53,32.78,67.43,34.46,82.24Z"/>
      <path class="cls-2" d="M279.22,229.94v47.24H3.7v-45.65c14.14-1.45,25.73-6,31.22-12.01,1.42.88,3.1,1.36,4.85,1.36h3.48c6.3,6.99,18.18,11.71,31.79,11.71s25.14-4.58,31.5-11.41c.22-.23.52-.37.85-.37s.62.13.84.35c6.67,6.9,19.06,11.53,33.25,11.53s27.07-4.82,33.65-11.95h.52c6.58,6.88,18.77,11.5,32.72,11.5s26.22-4.65,32.78-11.57h2.45c1.25,0,2.46-.25,3.56-.71,6.66,5.29,18.35,9.08,32.06,9.98Z"/>
      <path class="cls-1" d="M149.13,175.95h-37.92V17.97c0-9.91,8.51-17.97,18.96-17.97,5.03,0,9.77,1.85,13.34,5.2,3.62,3.41,5.62,7.94,5.62,12.77v157.98ZM117.01,170.14h26.31V17.97c0-3.21-1.34-6.24-3.79-8.54-2.49-2.34-5.82-3.63-9.37-3.63-7.26,0-13.16,5.46-13.16,12.16v152.17Z"/>
      <path class="cls-1" d="M117.01,168.81H44.06c-6.53,0-12.79-2.63-17.17-7.21-5.87-6.13-6.24-15.4-.87-22.05L117.01,21.84v146.97ZM111.21,38.85L30.58,143.16c-3.54,4.39-3.31,10.44.51,14.43,3.29,3.44,8.02,5.42,12.97,5.42h67.14V38.85Z"/>
      <path class="cls-1" d="M143.32,169.3v-12.88l.37-.66c9.3-16.72,14.66-34.56,15.92-53.03,2.06-30.08-7.52-54.7-15.93-70.06l-.36-.65V15.78l4.1,1.86c18.06,8.21,44.15,23.68,65.84,50.83,24.68,30.88,32.7,62.62,35.08,83.81l.02.32c0,8.65-7.42,15.69-16.53,15.69l-7.41.08c-26.06.29-52.12.59-78.18.88l-2.94.03ZM149.13,157.92v5.5c25.08-.29,50.16-.57,75.24-.85l7.44-.08c5.89,0,10.67-4.35,10.75-9.73-2.32-20.43-10.08-50.94-33.83-80.66-19.39-24.26-42.42-38.89-59.61-47.24v5.68c8.69,16.08,18.4,41.53,16.27,72.58-1.3,19.08-6.78,37.51-16.27,54.79Z"/>
      <path class="cls-1" d="M131.68,236.54c-13.63,0-26.1-3.99-34.05-10.77-7.62,6.72-19.47,10.67-32.39,10.67-13.62,0-25.98-4.35-33.52-11.71h-1.75s-.03,0-.04,0c-2.47,0-4.87-.68-6.96-1.96-1.4-.86-2.61-1.97-3.59-3.3l-16.14-22.05c-.45-.57-.87-1.18-1.23-1.82-2.48-4.26-2.68-9.43-.53-13.82,3.8-7.78,12.1-12.81,21.14-12.81h217.44c9.39,0,17.82,5.3,21.47,13.51,1.31,2.93,1.59,6.16.79,9.33h0c-.49,1.96-1.37,3.78-2.6,5.43l-15.22,21.8c-1.39,1.99-3.33,3.54-5.61,4.47-1.58.67-3.32,1.02-5.11,1.02h-.77c-7.79,7.27-20.5,11.57-34.45,11.57-13.07,0-25.07-3.78-32.94-10.24-7.93,6.66-20.53,10.69-33.94,10.69ZM97.59,216.5c1.4,0,2.77.57,3.75,1.57,6.17,6.37,17.78,10.31,30.34,10.31s24.6-4.07,30.65-10.63l1.21-1.31h4.04l1.21,1.26c6.04,6.32,17.45,10.24,29.77,10.24s23.79-3.95,29.82-10.3l1.21-1.27h4.2c.69,0,1.36-.13,1.97-.39.87-.36,1.57-.91,2.06-1.61l15.35-21.99c.59-.79,1.01-1.65,1.24-2.55h0c.35-1.38.23-2.77-.33-4.03-2.35-5.27-7.85-8.67-14.02-8.67H22.62c-5.95,0-11.37,3.23-13.81,8.24-.96,1.97-.87,4.21.26,6.15.18.32.38.6.59.87l.12.15,16.19,22.11c.34.46.77.86,1.28,1.17.81.5,1.77.78,2.71.76h5.31s1.22,1.34,1.22,1.34c5.76,6.39,16.78,10.37,28.76,10.37s22.7-3.88,28.52-10.11c.99-1.06,2.39-1.66,3.83-1.66ZM258.36,190.81h0,0Z"/>
    </g>
  </g>
</svg>