<?xml version="1.0" encoding="UTF-8"?>
<svg id="Layer_2" xmlns="http://www.w3.org/2000/svg" viewBox="0 0 204.75 213.11">
  <defs>
    <style>
      .cls-1 {
        fill: #231f20;
      }

      .cls-2 {
        fill: #b5b5b6;
      }
    </style>
  </defs>
  <g id="Layer_4">
    <g>
      <path class="cls-2" d="M25.27,199.86l174.12.85c4.26.02,6.82-4.71,4.48-8.26L91.22,21.24c-1.89-2.87-5.95-3.23-8.31-.75l-11.12,11.68c-2.28,2.39-6.17,2.16-8.14-.5L41.69,2.15c-2.18-2.93-6.6-2.85-8.67.16l-9.18,13.33"/>
      <path class="cls-1" d="M188.29,213.11c-1.4,0-2.78-.69-3.6-1.95L66.93,31.06l-3.29-2.97,3.12,2.96-12.33,13.03c-1.82,1.92-4.36,2.93-7.01,2.77-2.64-.16-5.06-1.47-6.63-3.6L17.73,12.03l-9.89,14.43c-1.34,1.96-4.02,2.46-5.98,1.12-1.96-1.34-2.46-4.02-1.12-5.98L11.17,6.39c1.45-2.11,3.84-3.4,6.39-3.44,2.55-.03,4.99,1.16,6.51,3.21l23.63,31.98s.09.12.23.13c.15.01.22-.07.25-.1l12.33-13.03c1.84-1.95,4.43-2.92,7.1-2.69,2.67.24,5.04,1.66,6.51,3.91l117.75,180.1c1.3,1.99.74,4.65-1.25,5.95-.73.47-1.54.7-2.35.7Z"/>
    </g>
  </g>
</svg>