<?xml version="1.0" encoding="UTF-8"?>
<svg id="Layer_2" xmlns="http://www.w3.org/2000/svg" viewBox="0 0 275.75 203.25">
  <defs>
    <style>
      .cls-1 {
        fill: #5f6162;
      }

      .cls-2 {
        fill: #b5b5b6;
      }

      .cls-3 {
        fill: #5f6263;
      }

      .cls-4 {
        stroke-width: 5px;
      }

      .cls-4, .cls-5 {
        fill: none;
        stroke: #231f20;
        stroke-miterlimit: 10;
      }

      .cls-5 {
        stroke-width: 5.3px;
      }
    </style>
  </defs>
  <g id="Car">
    <g>
      <path class="cls-2" d="M244.3,65.09H59.37c-3.44,0-5.84-3.4-4.68-6.64l16.8-47.03C73.96,4.53,80.32-.04,87.42,0l129.7.64c7.12.04,13.46,4.68,15.87,11.61l16.01,46.24c1.12,3.23-1.28,6.6-4.7,6.6Z"/>
      <path class="cls-5" d="M232.88,71.36H29.78l19.58-52.96c2.51-6.8,9.01-11.3,16.26-11.27l132.4.63c7.27.03,13.74,4.61,16.2,11.46l18.68,52.13Z"/>
      <g>
        <path class="cls-3" d="M58.1,171.35v13.97c0,9.9-8.03,17.93-17.93,17.93h-13.05c-9.9,0-17.93-8.03-17.93-17.93v-23.85c4.69,6.02,12.01,9.88,20.23,9.88h28.67Z"/>
        <path class="cls-3" d="M253.91,160.69v24.63c0,9.9-8.03,17.93-17.93,17.93h-13.05c-9.9,0-17.93-8.03-17.93-17.93v-13.97h25.49c9.34,0,17.72-4.13,23.41-10.66Z"/>
      </g>
      <path class="cls-2" d="M275.75,107.26v26.92c0,3-.56,5.89-1.59,8.57-1.25,3.26-3.19,6.22-5.66,8.76-5.41,5.55-13.38,9.07-22.26,9.07H55.07c-7.82,0-14.78-3.28-19.23-8.4-3.23-3.69-5.15-8.35-5.15-13.41v-32.91c0-15.86,14.37-28.71,32.09-28.71h179.32c18.59,0,33.66,13.48,33.66,30.11Z"/>
      <rect class="cls-1" x="28.21" y="106" width="51.19" height="36.11" rx="7.3" ry="7.3"/>
      <rect class="cls-1" x="182.33" y="106.57" width="48.63" height="36.4" rx="7.49" ry="7.49"/>
      <path class="cls-4" d="M260.25,107.49v31.65c0,3.53-.59,6.92-1.67,10.07-1.31,3.83-3.35,7.31-5.95,10.3-5.69,6.53-14.07,10.66-23.41,10.66H28.15c-8.22,0-15.54-3.86-20.23-9.88-3.4-4.34-5.42-9.82-5.42-15.76v-38.69c0-18.64,15.11-33.75,33.75-33.75h188.6c19.55,0,35.4,15.85,35.4,35.4Z"/>
      <path class="cls-4" d="M208.57,65.36c0,2.37-.65,4.64-1.84,6.73h-53.22c-1.19-2.09-1.84-4.36-1.84-6.73,0-10.49,12.74-18.99,28.45-18.99s28.45,8.5,28.45,18.99Z"/>
      <rect class="cls-1" x="100.68" y="126.76" width="62.92" height="8.19" rx="3.95" ry="3.95"/>
      <rect class="cls-1" x="100.7" y="109.79" width="62.92" height="8.19" rx="3.95" ry="3.95"/>
    </g>
  </g>
</svg>